<?xml version="1.0" encoding="UTF-8" standalone="no"?>
<svg
   width="22.860201"
   height="23.843201"
   viewBox="0 0 22.860201 23.843201"
   fill="none"
   version="1.1"
   id="svg30"
   sodipodi:docname="liblab_light.svg"
   inkscape:version="1.2 (dc2aeda, 2022-05-15)"
   xmlns:inkscape="http://www.inkscape.org/namespaces/inkscape"
   xmlns:sodipodi="http://sodipodi.sourceforge.net/DTD/sodipodi-0.dtd"
   xmlns="http://www.w3.org/2000/svg"
   xmlns:svg="http://www.w3.org/2000/svg">
  <sodipodi:namedview
     id="namedview32"
     pagecolor="#ffffff"
     bordercolor="#000000"
     borderopacity="0.25"
     inkscape:showpageshadow="2"
     inkscape:pageopacity="0.0"
     inkscape:pagecheckerboard="0"
     inkscape:deskcolor="#d1d1d1"
     showgrid="false"
     inkscape:zoom="5.0635348"
     inkscape:cx="2.0736502"
     inkscape:cy="11.553194"
     inkscape:window-width="1390"
     inkscape:window-height="1205"
     inkscape:window-x="0"
     inkscape:window-y="25"
     inkscape:window-maximized="0"
     inkscape:current-layer="g23" />
  <g
     clip-path="url(#clip0_71_914)"
     id="g23">
    <path
       fill-rule="evenodd"
       clip-rule="evenodd"
       d="M 3.58338,0 V 5.42116 C 4.10446,4.94188 4.79794,4.64964 5.55874,4.64964 H 8.45821 V 5.61052 H 5.55874 c -1.09019,0 -1.9754,0.89011 -1.9754,1.98901 v 1.5871 h 0.00163 v 2.58957 c 0,1.034 -0.52834,1.9433 -1.32745,2.4699 0.79864,0.5272 1.32586,1.4365 1.32586,2.4689 v 3.0284 h -4e-5 v 1.1499 c 0,1.0977 0.88402,1.989 1.9754,1.989 h 2.89947 v 0.9609 H 5.55874 c -1.61883,0 -2.92969,-1.3219 -2.92969,-2.9499 v -1.9698 h 4e-5 V 16.715 c 0,-1.0934 -0.87722,-1.9821 -1.962791,-1.9889 H 0.655283 0 v -10e-5 -0.9608 0 H 0.653693 0.66661 C 1.7516,13.759 2.63068,12.8713 2.63068,11.7762 V 10.4357 H 2.62905 V 7.59953 c 0,-0.14801 0.01082,-0.29347 0.03172,-0.43561 C 1.19753,6.69547 0.138371,5.31725 0.138371,3.68877 0.138371,1.9335 1.36851,0.473439 3.00715,0.123173 Z m -0.9543,1.25773 c -0.9085,0.42861 -1.53641,1.35551 -1.53641,2.43104 0,1.07612 0.62836,2.00481 1.53641,2.43305 z M 19.2752,18.9235 v 1.9698 c 0,1.0977 -0.884,1.989 -1.9754,1.989 h -2.8979 v 0.9609 h 2.8979 c 1.6188,0 2.9297,-1.3219 2.9297,-2.9499 v -1.1499 0 -3.0284 c 0,-1.0936 0.8775,-1.9824 1.9634,-1.9889 h 0.012 0.6553 v -10e-5 -0.9608 0 h -0.6553 -0.012 c -1.0847,-0.0065 -1.9634,-0.8941 -1.9634,-1.989 v -1.3405 h 0.0016 V 7.59953 c 0,-0.148 -0.0109,-0.29345 -0.0317,-0.43558 1.4633,-0.46841 2.5225,-1.84666 2.5225,-3.47518 0,-1.75527 -1.2302,-3.215331 -2.8688,-3.565597 L 19.2769,0 V 5.42127 C 18.7558,4.94193 18.0622,4.64964 17.3014,4.64964 h -2.8995 v 0.96088 h 2.8995 c 1.0902,0 1.9754,0.89011 1.9754,1.98901 v 1.5871 h -0.0016 v 2.58957 c 0,1.0337 0.528,1.9427 1.3267,2.4694 -0.7991,0.527 -1.3267,1.4367 -1.3267,2.4694 z M 9.42838,18.5824 c -0.83074,0 -1.50461,-0.6785 -1.50461,-1.515 H 6.96948 c 0,1.3672 1.10112,2.4759 2.4589,2.4759 0.81312,0 1.53422,-0.3976 1.98182,-1.0102 0.4477,0.6126 1.1687,1.0102 1.9819,1.0102 1.3577,0 2.4589,-1.1087 2.4589,-2.4759 h -0.9543 c 0,0.8365 -0.6739,1.515 -1.5046,1.515 -0.8302,0 -1.5037,-0.6776 -1.5047,-1.5132 v -0.0018 -1.9709 l 1.9341,-0.9737 -0.4267,-0.8594 -1.9847,0.9992 -1.98468,-0.9992 -0.42678,0.8594 1.93456,0.974 v 1.9706 h -2e-4 c 0,0.8365 -0.6739,1.515 -1.50462,1.515 z m 5.13732,-7.1569 c 0.6685,0 1.2104,-0.5457 1.2104,-1.2188 0,-0.67304 -0.5419,-1.21867 -1.2104,-1.21867 -0.6684,0 -1.2103,0.54563 -1.2103,1.21867 0,0.6731 0.5419,1.2188 1.2103,1.2188 z M 9.46507,10.2067 c 0,0.6731 -0.5419,1.2188 -1.21037,1.2188 -0.66847,0 -1.21037,-0.5457 -1.21037,-1.2188 0,-0.67304 0.5419,-1.21867 1.21037,-1.21867 0.66847,0 1.21037,0.54563 1.21037,1.21867 z M 20.2311,6.12182 V 1.25773 c 0.9086,0.42861 1.5365,1.35551 1.5365,2.43104 0,1.07612 -0.6284,2.00481 -1.5365,2.43305 z"
       fill="#f7f7f7"
       id="path9"
       style="fill:#000000" />
  </g>
  <defs
     id="defs28">
    <clipPath
       id="clip0_71_914">
      <rect
         width="87"
         height="24"
         fill="#ffffff"
         id="rect25"
         x="0"
         y="0" />
    </clipPath>
  </defs>
</svg>
